<mxfile host="app.diagrams.net" modified="2023-06-23T08:41:44.732Z" agent="Mozilla/5.0 (Windows NT 10.0; Win64; x64) AppleWebKit/537.36 (KHTML, like Gecko) Chrome/114.0.0.0 Safari/537.36 Edg/114.0.1823.51" etag="_oAFGLxKYvyDXE12Ilqp" version="21.3.7" type="github">
  <diagram name="第 1 页" id="wKu1LNHtE1YL5XD0kWc-">
    <mxGraphModel dx="780" dy="418" grid="0" gridSize="10" guides="1" tooltips="1" connect="1" arrows="1" fold="1" page="1" pageScale="1" pageWidth="2336" pageHeight="1654" math="0" shadow="0">
      <root>
        <mxCell id="0" />
        <mxCell id="1" parent="0" />
        <mxCell id="WGNsGFfkHsSdonWRwcg4-1" value="" style="line;strokeWidth=1;fillColor=none;align=left;verticalAlign=middle;spacingTop=-1;spacingLeft=3;spacingRight=3;rotatable=0;labelPosition=right;points=[];portConstraint=eastwest;strokeColor=inherit;" vertex="1" parent="1">
          <mxGeometry x="293" y="170" width="867" height="8" as="geometry" />
        </mxCell>
        <mxCell id="WGNsGFfkHsSdonWRwcg4-2" value="顾客" style="text;align=center;fontStyle=1;verticalAlign=middle;spacingLeft=3;spacingRight=3;strokeColor=none;rotatable=0;points=[[0,0.5],[1,0.5]];portConstraint=eastwest;html=1;" vertex="1" parent="1">
          <mxGeometry x="352" y="151" width="48" height="16" as="geometry" />
        </mxCell>
        <mxCell id="WGNsGFfkHsSdonWRwcg4-3" value="出行提示获取" style="text;align=center;fontStyle=1;verticalAlign=middle;spacingLeft=3;spacingRight=3;strokeColor=none;rotatable=0;points=[[0,0.5],[1,0.5]];portConstraint=eastwest;html=1;" vertex="1" parent="1">
          <mxGeometry x="511" y="151" width="48" height="16" as="geometry" />
        </mxCell>
        <mxCell id="WGNsGFfkHsSdonWRwcg4-4" value="车辆统计" style="text;align=center;fontStyle=1;verticalAlign=middle;spacingLeft=3;spacingRight=3;strokeColor=none;rotatable=0;points=[[0,0.5],[1,0.5]];portConstraint=eastwest;html=1;" vertex="1" parent="1">
          <mxGeometry x="895" y="148" width="48" height="16" as="geometry" />
        </mxCell>
        <mxCell id="WGNsGFfkHsSdonWRwcg4-5" value="定位统计" style="text;align=center;fontStyle=1;verticalAlign=middle;spacingLeft=3;spacingRight=3;strokeColor=none;rotatable=0;points=[[0,0.5],[1,0.5]];portConstraint=eastwest;html=1;" vertex="1" parent="1">
          <mxGeometry x="701" y="151" width="48" height="16" as="geometry" />
        </mxCell>
        <mxCell id="WGNsGFfkHsSdonWRwcg4-6" style="edgeStyle=orthogonalEdgeStyle;rounded=0;orthogonalLoop=1;jettySize=auto;html=1;" edge="1" parent="1" source="WGNsGFfkHsSdonWRwcg4-7" target="WGNsGFfkHsSdonWRwcg4-9">
          <mxGeometry relative="1" as="geometry" />
        </mxCell>
        <mxCell id="WGNsGFfkHsSdonWRwcg4-7" value="" style="ellipse;html=1;shape=startState;fillColor=#000000;strokeColor=#ff0000;" vertex="1" parent="1">
          <mxGeometry x="361" y="178" width="30" height="30" as="geometry" />
        </mxCell>
        <mxCell id="WGNsGFfkHsSdonWRwcg4-8" style="edgeStyle=orthogonalEdgeStyle;rounded=0;orthogonalLoop=1;jettySize=auto;html=1;" edge="1" parent="1" source="WGNsGFfkHsSdonWRwcg4-9" target="WGNsGFfkHsSdonWRwcg4-10">
          <mxGeometry relative="1" as="geometry" />
        </mxCell>
        <mxCell id="WGNsGFfkHsSdonWRwcg4-9" value="点击出行界面" style="html=1;whiteSpace=wrap;" vertex="1" parent="1">
          <mxGeometry x="333" y="272" width="86" height="42" as="geometry" />
        </mxCell>
        <mxCell id="WGNsGFfkHsSdonWRwcg4-10" value="显示基本信息" style="html=1;whiteSpace=wrap;" vertex="1" parent="1">
          <mxGeometry x="496" y="272" width="86" height="42" as="geometry" />
        </mxCell>
        <mxCell id="WGNsGFfkHsSdonWRwcg4-53" style="edgeStyle=orthogonalEdgeStyle;rounded=0;orthogonalLoop=1;jettySize=auto;html=1;entryX=0.5;entryY=0;entryDx=0;entryDy=0;" edge="1" parent="1" source="WGNsGFfkHsSdonWRwcg4-12" target="WGNsGFfkHsSdonWRwcg4-14">
          <mxGeometry relative="1" as="geometry" />
        </mxCell>
        <mxCell id="WGNsGFfkHsSdonWRwcg4-12" value="获取定位" style="html=1;whiteSpace=wrap;" vertex="1" parent="1">
          <mxGeometry x="693" y="438" width="86" height="42" as="geometry" />
        </mxCell>
        <mxCell id="WGNsGFfkHsSdonWRwcg4-13" style="edgeStyle=orthogonalEdgeStyle;rounded=0;orthogonalLoop=1;jettySize=auto;html=1;" edge="1" parent="1" source="WGNsGFfkHsSdonWRwcg4-14" target="WGNsGFfkHsSdonWRwcg4-23">
          <mxGeometry relative="1" as="geometry" />
        </mxCell>
        <mxCell id="WGNsGFfkHsSdonWRwcg4-14" value="" style="rhombus;whiteSpace=wrap;html=1;" vertex="1" parent="1">
          <mxGeometry x="696" y="521" width="80" height="33" as="geometry" />
        </mxCell>
        <mxCell id="WGNsGFfkHsSdonWRwcg4-15" value="" style="ellipse;html=1;shape=endState;fillColor=#000000;strokeColor=#ff0000;" vertex="1" parent="1">
          <mxGeometry x="361" y="855" width="30" height="30" as="geometry" />
        </mxCell>
        <mxCell id="WGNsGFfkHsSdonWRwcg4-16" value="" style="endArrow=classic;html=1;rounded=0;" edge="1" parent="1">
          <mxGeometry width="50" height="50" relative="1" as="geometry">
            <mxPoint x="376" y="762" as="sourcePoint" />
            <mxPoint x="376" y="853.1923076923077" as="targetPoint" />
          </mxGeometry>
        </mxCell>
        <mxCell id="WGNsGFfkHsSdonWRwcg4-17" value="" style="endArrow=none;dashed=1;html=1;dashPattern=1 3;strokeWidth=2;rounded=0;" edge="1" parent="1">
          <mxGeometry width="50" height="50" relative="1" as="geometry">
            <mxPoint x="1274" y="904" as="sourcePoint" />
            <mxPoint x="1274" y="101" as="targetPoint" />
          </mxGeometry>
        </mxCell>
        <mxCell id="WGNsGFfkHsSdonWRwcg4-18" style="edgeStyle=orthogonalEdgeStyle;rounded=0;orthogonalLoop=1;jettySize=auto;html=1;" edge="1" parent="1">
          <mxGeometry relative="1" as="geometry">
            <mxPoint x="534.83" y="365" as="targetPoint" />
            <mxPoint x="534.83" y="314" as="sourcePoint" />
          </mxGeometry>
        </mxCell>
        <mxCell id="WGNsGFfkHsSdonWRwcg4-19" value="" style="line;strokeWidth=3;rotatable=0;dashed=0;labelPosition=right;align=left;verticalAlign=middle;spacingTop=0;spacingLeft=6;points=[];portConstraint=eastwest;fontSize=13;" vertex="1" parent="1">
          <mxGeometry x="507" y="363" width="60" height="10" as="geometry" />
        </mxCell>
        <mxCell id="WGNsGFfkHsSdonWRwcg4-20" value="" style="endArrow=classic;html=1;rounded=0;exitX=0.511;exitY=0.593;exitDx=0;exitDy=0;entryX=0.5;entryY=0;entryDx=0;entryDy=0;exitPerimeter=0;" edge="1" parent="1" source="WGNsGFfkHsSdonWRwcg4-19" target="WGNsGFfkHsSdonWRwcg4-12">
          <mxGeometry width="50" height="50" relative="1" as="geometry">
            <mxPoint x="646" y="303" as="sourcePoint" />
            <mxPoint x="705" y="465" as="targetPoint" />
          </mxGeometry>
        </mxCell>
        <mxCell id="WGNsGFfkHsSdonWRwcg4-21" value="[查询请求]" style="text;html=1;strokeColor=none;fillColor=none;align=center;verticalAlign=middle;whiteSpace=wrap;rounded=0;" vertex="1" parent="1">
          <mxGeometry x="586" y="406" width="60" height="30" as="geometry" />
        </mxCell>
        <mxCell id="WGNsGFfkHsSdonWRwcg4-22" style="edgeStyle=orthogonalEdgeStyle;rounded=0;orthogonalLoop=1;jettySize=auto;html=1;" edge="1" parent="1" source="WGNsGFfkHsSdonWRwcg4-23" target="WGNsGFfkHsSdonWRwcg4-28">
          <mxGeometry relative="1" as="geometry" />
        </mxCell>
        <mxCell id="WGNsGFfkHsSdonWRwcg4-23" value="查询失败处理" style="html=1;whiteSpace=wrap;" vertex="1" parent="1">
          <mxGeometry x="496" y="516.5" width="86" height="42" as="geometry" />
        </mxCell>
        <mxCell id="WGNsGFfkHsSdonWRwcg4-24" value="[查询失败]" style="text;html=1;strokeColor=none;fillColor=none;align=center;verticalAlign=middle;whiteSpace=wrap;rounded=0;" vertex="1" parent="1">
          <mxGeometry x="616" y="512" width="60" height="30" as="geometry" />
        </mxCell>
        <mxCell id="WGNsGFfkHsSdonWRwcg4-25" style="edgeStyle=orthogonalEdgeStyle;rounded=0;orthogonalLoop=1;jettySize=auto;html=1;" edge="1" parent="1" source="WGNsGFfkHsSdonWRwcg4-26" target="WGNsGFfkHsSdonWRwcg4-30">
          <mxGeometry relative="1" as="geometry" />
        </mxCell>
        <mxCell id="WGNsGFfkHsSdonWRwcg4-26" value="生成出行建议" style="html=1;whiteSpace=wrap;" vertex="1" parent="1">
          <mxGeometry x="494" y="717" width="86" height="42" as="geometry" />
        </mxCell>
        <mxCell id="WGNsGFfkHsSdonWRwcg4-27" style="edgeStyle=orthogonalEdgeStyle;rounded=0;orthogonalLoop=1;jettySize=auto;html=1;entryX=0;entryY=0.5;entryDx=0;entryDy=0;" edge="1" parent="1" source="WGNsGFfkHsSdonWRwcg4-28" target="WGNsGFfkHsSdonWRwcg4-9">
          <mxGeometry relative="1" as="geometry">
            <Array as="points">
              <mxPoint x="313" y="538" />
              <mxPoint x="313" y="293" />
            </Array>
          </mxGeometry>
        </mxCell>
        <mxCell id="WGNsGFfkHsSdonWRwcg4-28" value="报错反馈" style="html=1;whiteSpace=wrap;" vertex="1" parent="1">
          <mxGeometry x="333" y="516.5" width="86" height="42" as="geometry" />
        </mxCell>
        <mxCell id="WGNsGFfkHsSdonWRwcg4-29" value="[错误信息]" style="text;html=1;strokeColor=none;fillColor=none;align=center;verticalAlign=middle;whiteSpace=wrap;rounded=0;" vertex="1" parent="1">
          <mxGeometry x="431" y="508" width="60" height="30" as="geometry" />
        </mxCell>
        <mxCell id="WGNsGFfkHsSdonWRwcg4-30" value="展示出行信息" style="html=1;whiteSpace=wrap;" vertex="1" parent="1">
          <mxGeometry x="333" y="717" width="86" height="42" as="geometry" />
        </mxCell>
        <mxCell id="WGNsGFfkHsSdonWRwcg4-31" value="" style="line;strokeWidth=3;rotatable=0;dashed=0;labelPosition=right;align=left;verticalAlign=middle;spacingTop=0;spacingLeft=6;points=[];portConstraint=eastwest;fontSize=13;" vertex="1" parent="1">
          <mxGeometry x="507" y="652" width="60" height="10" as="geometry" />
        </mxCell>
        <mxCell id="WGNsGFfkHsSdonWRwcg4-32" value="" style="endArrow=classic;html=1;rounded=0;exitX=0.504;exitY=0.826;exitDx=0;exitDy=0;exitPerimeter=0;" edge="1" parent="1" source="WGNsGFfkHsSdonWRwcg4-31" target="WGNsGFfkHsSdonWRwcg4-26">
          <mxGeometry width="50" height="50" relative="1" as="geometry">
            <mxPoint x="665" y="710" as="sourcePoint" />
            <mxPoint x="715" y="660" as="targetPoint" />
          </mxGeometry>
        </mxCell>
        <mxCell id="WGNsGFfkHsSdonWRwcg4-57" style="edgeStyle=orthogonalEdgeStyle;rounded=0;orthogonalLoop=1;jettySize=auto;html=1;entryX=0.5;entryY=0;entryDx=0;entryDy=0;" edge="1" parent="1" source="WGNsGFfkHsSdonWRwcg4-36" target="WGNsGFfkHsSdonWRwcg4-56">
          <mxGeometry relative="1" as="geometry" />
        </mxCell>
        <mxCell id="WGNsGFfkHsSdonWRwcg4-36" value="查询单车" style="html=1;whiteSpace=wrap;" vertex="1" parent="1">
          <mxGeometry x="878" y="438" width="86" height="42" as="geometry" />
        </mxCell>
        <mxCell id="WGNsGFfkHsSdonWRwcg4-39" value="" style="endArrow=classic;html=1;rounded=0;exitX=0.578;exitY=0.791;exitDx=0;exitDy=0;entryX=0.5;entryY=0;entryDx=0;entryDy=0;exitPerimeter=0;" edge="1" parent="1" source="WGNsGFfkHsSdonWRwcg4-19" target="WGNsGFfkHsSdonWRwcg4-36">
          <mxGeometry width="50" height="50" relative="1" as="geometry">
            <mxPoint x="548" y="379" as="sourcePoint" />
            <mxPoint x="746" y="448" as="targetPoint" />
          </mxGeometry>
        </mxCell>
        <mxCell id="WGNsGFfkHsSdonWRwcg4-45" value="哈喽单车" style="text;align=center;fontStyle=1;verticalAlign=middle;spacingLeft=3;spacingRight=3;strokeColor=none;rotatable=0;points=[[0,0.5],[1,0.5]];portConstraint=eastwest;html=1;" vertex="1" parent="1">
          <mxGeometry x="1053" y="148" width="48" height="16" as="geometry" />
        </mxCell>
        <mxCell id="WGNsGFfkHsSdonWRwcg4-48" value="[查询请求]" style="text;html=1;strokeColor=none;fillColor=none;align=center;verticalAlign=middle;whiteSpace=wrap;rounded=0;" vertex="1" parent="1">
          <mxGeometry x="784" y="386" width="60" height="30" as="geometry" />
        </mxCell>
        <mxCell id="WGNsGFfkHsSdonWRwcg4-49" value="统计单车信息" style="html=1;whiteSpace=wrap;" vertex="1" parent="1">
          <mxGeometry x="1012.5" y="649" width="87" height="41.5" as="geometry" />
        </mxCell>
        <mxCell id="WGNsGFfkHsSdonWRwcg4-52" value="" style="endArrow=classic;html=1;rounded=0;exitX=1;exitY=0.5;exitDx=0;exitDy=0;entryX=0.454;entryY=0.525;entryDx=0;entryDy=0;entryPerimeter=0;" edge="1" parent="1" source="WGNsGFfkHsSdonWRwcg4-14" target="WGNsGFfkHsSdonWRwcg4-54">
          <mxGeometry width="50" height="50" relative="1" as="geometry">
            <mxPoint x="931" y="490" as="sourcePoint" />
            <mxPoint x="1012" y="614" as="targetPoint" />
          </mxGeometry>
        </mxCell>
        <mxCell id="WGNsGFfkHsSdonWRwcg4-54" value="" style="line;strokeWidth=3;rotatable=0;dashed=0;labelPosition=right;align=left;verticalAlign=middle;spacingTop=0;spacingLeft=6;points=[];portConstraint=eastwest;fontSize=13;" vertex="1" parent="1">
          <mxGeometry x="1026" y="585" width="60" height="10" as="geometry" />
        </mxCell>
        <mxCell id="WGNsGFfkHsSdonWRwcg4-55" value="" style="endArrow=classic;html=1;rounded=0;exitX=0.504;exitY=0.826;exitDx=0;exitDy=0;exitPerimeter=0;" edge="1" parent="1">
          <mxGeometry width="50" height="50" relative="1" as="geometry">
            <mxPoint x="1055.16" y="593" as="sourcePoint" />
            <mxPoint x="1055.16" y="650" as="targetPoint" />
          </mxGeometry>
        </mxCell>
        <mxCell id="WGNsGFfkHsSdonWRwcg4-56" value="" style="rhombus;whiteSpace=wrap;html=1;" vertex="1" parent="1">
          <mxGeometry x="881" y="516.5" width="80" height="33" as="geometry" />
        </mxCell>
        <mxCell id="WGNsGFfkHsSdonWRwcg4-58" value="" style="endArrow=classic;html=1;rounded=0;exitX=0.5;exitY=1;exitDx=0;exitDy=0;entryX=0.546;entryY=0.278;entryDx=0;entryDy=0;entryPerimeter=0;" edge="1" parent="1" source="WGNsGFfkHsSdonWRwcg4-56" target="WGNsGFfkHsSdonWRwcg4-54">
          <mxGeometry width="50" height="50" relative="1" as="geometry">
            <mxPoint x="786" y="548" as="sourcePoint" />
            <mxPoint x="1039" y="595" as="targetPoint" />
          </mxGeometry>
        </mxCell>
      </root>
    </mxGraphModel>
  </diagram>
</mxfile>
